<svg xmlns="http://www.w3.org/2000/svg" viewBox="0 0 54 54"><title>application repair</title><g id="Layer_2" data-name="Layer 2"><g id="Layer_1-2" data-name="Layer 1"><g id="Layer_1-2-2" data-name="Layer 1-2"><g id="appliance_repair" data-name="appliance repair"><circle id="Ellipse_40" data-name="Ellipse 40" cx="27" cy="27" r="27" fill="#07cb79" opacity="0.1" style="isolation:isolate"/><g id="Group_129" data-name="Group 129"><path id="Path_10" data-name="Path 10" d="M42,25.82v2.42a3.85,3.85,0,0,1-3.85,3.85H15.86A3.86,3.86,0,0,1,12,28.23h0V25.82Z" fill="#07cb79" stroke="#231f20" stroke-linecap="round" stroke-linejoin="round" stroke-width="0.5"/><path id="Path_11" data-name="Path 11" d="M42,17.81v8H12v-8A1.81,1.81,0,0,1,13.81,16H40.18A1.82,1.82,0,0,1,42,17.81Z" fill="#fff" stroke="#231f20" stroke-linecap="round" stroke-linejoin="round" stroke-width="0.5"/><line id="Line_6" data-name="Line 6" x1="22.24" y1="19.33" x2="31.76" y2="19.33" stroke-width="0.5" stroke="#231f20" stroke-linecap="round" stroke-linejoin="round" fill="none"/><line id="Line_7" data-name="Line 7" x1="38.38" y1="19.33" x2="39.01" y2="19.33" stroke-width="0.5" stroke="#231f20" stroke-linecap="round" stroke-linejoin="round" fill="none"/><line id="Line_8" data-name="Line 8" x1="36.48" y1="19.33" x2="37.11" y2="19.33" stroke-width="0.5" stroke="#231f20" stroke-linecap="round" stroke-linejoin="round" fill="none"/><rect id="Rectangle_14" data-name="Rectangle 14" x="36.34" y="21.81" width="5.66" height="2.67" rx="0.52" fill="#fff" stroke="#231f20" stroke-linecap="round" stroke-linejoin="round" stroke-width="0.5"/><g id="Group_4" data-name="Group 4"><path id="Path_12" data-name="Path 12" d="M20.54,33.46s-2.08,1.41-1,2.09,2.23.62-.59,3.07" fill="none" stroke="#231f20" stroke-linecap="round" stroke-linejoin="round" stroke-width="0.5"/><path id="Path_13" data-name="Path 13" d="M25.33,33.46s-2.07,1.41-1,2.09,2.23.62-.58,3.07" fill="none" stroke="#231f20" stroke-linecap="round" stroke-linejoin="round" stroke-width="0.5"/><path id="Path_14" data-name="Path 14" d="M30.12,33.46s-2.07,1.41-1,2.09,2.24.62-.58,3.07" fill="none" stroke="#231f20" stroke-linecap="round" stroke-linejoin="round" stroke-width="0.5"/><path id="Path_15" data-name="Path 15" d="M34.92,33.46s-2.07,1.41-1,2.09,2.23.62-.59,3.07" fill="none" stroke="#231f20" stroke-linecap="round" stroke-linejoin="round" stroke-width="0.5"/></g><path id="Path_16" data-name="Path 16" d="M16.4,27.14H29.45" fill="none" stroke="#fff" stroke-linecap="round" stroke-width="0.5"/><path id="Path_17" data-name="Path 17" d="M22,27.14h1.72" fill="none" stroke="#fff" stroke-linecap="round" stroke-width="0.5"/></g></g></g></g></g></svg>