<svg xmlns="http://www.w3.org/2000/svg" xmlns:xlink="http://www.w3.org/1999/xlink" viewBox="0 0 14.52 14.47"><defs><linearGradient id="linear-gradient" x1="-1772.33" y1="73.5" x2="-1771.53" y2="74.72" gradientTransform="translate(25683.96 -1064.33) scale(14.49)" gradientUnits="userSpaceOnUse"><stop offset="0" stop-color="#ffab3d"/><stop offset="1" stop-color="#e33f01"/></linearGradient></defs><title>Asset 1</title><g id="Layer_2" data-name="Layer 2"><g id="Layer_1-2" data-name="Layer 1"><g id="Layer_1-2-2" data-name="Layer 1-2"><g id="Group_169" data-name="Group 169"><path id="Path_149" data-name="Path 149" d="M7.8.39h0A.56.56,0,0,1,8.51,0a.57.57,0,0,1,.38.52h0a.56.56,0,0,0,.55.56A.59.59,0,0,0,9.9.89h0a.55.55,0,0,1,.77-.13h0a.57.57,0,0,1,.21.63h0a.55.55,0,0,0,.34.7h0a.53.53,0,0,0,.5-.09h0a.56.56,0,0,1,.78.12.57.57,0,0,1,0,.66h0a.55.55,0,0,0,.12.77h0a.53.53,0,0,0,.5.08h0a.58.58,0,0,1,.71.36.56.56,0,0,1-.21.62h0a.56.56,0,0,0-.09.79.53.53,0,0,0,.42.21h0a.55.55,0,0,1,.56.54h0a.58.58,0,0,1-.39.54h0a.55.55,0,0,0-.36.69h0a.54.54,0,0,0,.36.36h0a.56.56,0,0,1,.35.71.57.57,0,0,1-.52.38h0a.55.55,0,0,0-.56.55.59.59,0,0,0,.23.46h0a.55.55,0,0,1,.13.77h0a.57.57,0,0,1-.63.21h0a.55.55,0,0,0-.7.34h0a.53.53,0,0,0,.08.5h0a.56.56,0,0,1-.12.78.57.57,0,0,1-.66,0h0a.55.55,0,0,0-.77.12h0a.53.53,0,0,0-.08.5h0a.57.57,0,0,1-.36.71.56.56,0,0,1-.62-.21h0a.56.56,0,0,0-.79-.09.53.53,0,0,0-.21.42h0a.56.56,0,0,1-.54.56h0a.57.57,0,0,1-.54-.39h0a.55.55,0,0,0-.69-.36h0a.54.54,0,0,0-.36.36h0a.57.57,0,0,1-.7.36.56.56,0,0,1-.39-.53h0a.56.56,0,0,0-.55-.56.59.59,0,0,0-.46.23h0a.55.55,0,0,1-.77.13h0a.57.57,0,0,1-.21-.63h0a.55.55,0,0,0-.34-.7h0a.53.53,0,0,0-.5.08h0A.57.57,0,0,1,2,12.38v0a.57.57,0,0,1,0-.66H2a.55.55,0,0,0-.12-.77h0a.53.53,0,0,0-.5-.08h0a.57.57,0,0,1-.71-.36.56.56,0,0,1,.21-.62h0A.57.57,0,0,0,1,9.08a.53.53,0,0,0-.42-.21h0A.55.55,0,0,1,0,8.32H0a.57.57,0,0,1,.39-.54h0a.55.55,0,0,0,.36-.69h0a.54.54,0,0,0-.36-.36h0A.55.55,0,0,1,0,6V6a.56.56,0,0,1,.53-.39h0a.56.56,0,0,0,.56-.55A.59.59,0,0,0,.89,4.6h0a.55.55,0,0,1-.13-.77h0a.57.57,0,0,1,.63-.21h0a.55.55,0,0,0,.7-.34h0A.51.51,0,0,0,2,2.79H2A.56.56,0,0,1,2.15,2h0a.57.57,0,0,1,.66,0h0a.55.55,0,0,0,.77-.12h0a.53.53,0,0,0,.08-.5h0A.57.57,0,0,1,4,.68a.56.56,0,0,1,.62.21h0a.56.56,0,0,0,1-.33h0A.55.55,0,0,1,6.19,0h0a.58.58,0,0,1,.54.39h0a.55.55,0,0,0,.69.36h0A.54.54,0,0,0,7.8.39Z" fill="url(#linear-gradient)"/><path id="Path_125" data-name="Path 125" d="M9.51,5.37,6.32,9.31" fill="none" stroke="#fff" stroke-linecap="round"/><path id="Path_126" data-name="Path 126" d="M6.32,9.31,4.64,7.94" fill="none" stroke="#fff" stroke-linecap="round"/></g></g></g></g></svg>