<svg xmlns="http://www.w3.org/2000/svg" viewBox="0 0 54 54"><title>beauty and spa</title><g id="Layer_2" data-name="Layer 2"><g id="Layer_1-2" data-name="Layer 1"><g id="Layer_1-2-2" data-name="Layer 1-2"><g id="Group_462" data-name="Group 462"><circle id="Ellipse_39" data-name="Ellipse 39" cx="27" cy="27" r="27" fill="#07cb79" opacity="0.1" style="isolation:isolate"/><g id="Group_128" data-name="Group 128"><path id="Path_5" data-name="Path 5" d="M22.77,18.56v-4L26.23,12v6.56" fill="#fff" stroke="#231f20" stroke-linecap="round" stroke-linejoin="round" stroke-width="0.5"/><path id="Path_7" data-name="Path 7" d="M21.58,26.08V18.56h5.84v7.52" fill="#fff" stroke="#231f20" stroke-linecap="round" stroke-linejoin="round" stroke-width="0.5"/><path id="Path_8" data-name="Path 8" d="M29,26.08v15a1,1,0,0,1-.88,1H21a1,1,0,0,1-.95-1v-15Z" fill="#fff" stroke="#231f20" stroke-linecap="round" stroke-linejoin="round" stroke-width="0.5"/><g id="Path_140" data-name="Path 140"><path d="M31.81,41.75h-5A1.76,1.76,0,0,1,25.07,40V32.15h8.5V40A1.76,1.76,0,0,1,31.81,41.75Z" fill="#07cb79"/><path d="M25.32,32.4V40a1.52,1.52,0,0,0,1.52,1.51h5A1.52,1.52,0,0,0,33.32,40V32.4h-8m-.5-.5h9V40a2,2,0,0,1-2,2h-5a2,2,0,0,1-2-2Z" fill="#231f20"/></g><path id="Path_9" data-name="Path 9" d="M33.83,31.9V40a2,2,0,0,1-2,2h-5a2,2,0,0,1-2-2V31.9Z" fill="none"/><line id="Line_2" data-name="Line 2" x1="32.62" y1="33.22" x2="32.62" y2="35.93" stroke-width="0.5" stroke="#fff" stroke-linecap="round" stroke-linejoin="round" fill="none"/><line id="Line_3" data-name="Line 3" x1="22.84" y1="21.26" x2="22.84" y2="23.22" stroke-width="0.5" stroke="#07cb79" stroke-linecap="round" stroke-linejoin="round" fill="none"/><line id="Line_4" data-name="Line 4" x1="22.84" y1="24.3" x2="22.84" y2="24.89" stroke-width="0.5" stroke="#07cb79" stroke-linecap="round" stroke-linejoin="round" fill="none"/><line id="Line_5" data-name="Line 5" x1="32.62" y1="37.03" x2="32.62" y2="37.95" stroke-width="0.5" stroke="#fff" stroke-linecap="round" stroke-linejoin="round" fill="none"/></g></g></g></g></g></svg>