<svg xmlns="http://www.w3.org/2000/svg" viewBox="0 0 54 54"><title>repair</title><g id="Layer_2" data-name="Layer 2"><g id="Layer_1-2" data-name="Layer 1"><g id="Layer_1-2-2" data-name="Layer 1-2"><g id="repair"><circle id="Ellipse_41" data-name="Ellipse 41" cx="27" cy="27" r="27" fill="#07cb79" opacity="0.1" style="isolation:isolate"/><g id="Group_130" data-name="Group 130"><path id="Path_18" data-name="Path 18" d="M34.82,16.54h3.36v7.24l-13,5.45v4" fill="none" stroke="#231f20" stroke-linecap="round" stroke-linejoin="round" stroke-width="0.5"/><rect id="Rectangle_15" data-name="Rectangle 15" x="22.97" y="32.24" width="4.42" height="9.76" rx="1.38" fill="#07cb79" stroke="#231f20" stroke-linecap="round" stroke-linejoin="round" stroke-width="0.5"/><line id="Line_9" data-name="Line 9" x1="26.55" y1="33.19" x2="26.55" y2="36.8" stroke-width="0.5" stroke="#fff" stroke-linecap="round" stroke-linejoin="round" fill="none"/><line id="Line_10" data-name="Line 10" x1="26.55" y1="37.86" x2="26.55" y2="38.45" stroke-width="0.5" stroke="#fff" stroke-linecap="round" stroke-linejoin="round" fill="none"/><path id="Path_19" data-name="Path 19" d="M34,12H15.8a.8.8,0,0,0-.8.8h0v11a1.07,1.07,0,0,0,2.13.21.74.74,0,0,0,0-.21V22.31a1.07,1.07,0,0,0,2.14,0V25.6a1.07,1.07,0,0,0,2.13,0V21.07H34a.79.79,0,0,0,.8-.78v0h0V12.79A.8.8,0,0,0,34,12Z" fill="#fff" stroke="#231f20" stroke-linecap="round" stroke-linejoin="round" stroke-width="0.5"/><path id="Path_20" data-name="Path 20" d="M16.5,14.05h8.1" fill="none" stroke="#07cb79" stroke-linecap="round" stroke-width="0.5"/><path id="Path_21" data-name="Path 21" d="M28.46,14.05h2.1" fill="none" stroke="#07cb79" stroke-linecap="round" stroke-width="0.5"/></g></g></g></g></g></svg>